PathFileType	4	(X/Y/Z)	walk-thru1-1-TP.trc
DataRate	CameraRate	NumFrames	NumMarkers	Units	OrigDataRate	OrigDataStartFrame	OrigNumFrames
120.00	120.00	       4	60	mm	120.00	193	       514
Frame#	Time	Top.Head			Front.Head			Rear.Head			Jaw			C7			R.Clavicle			L.Clavicle			R.Shoulder			L.Shoulder			R.Scapula			L.Scapula			R.Scap.Inf			R.Biceps.Lateral			R.Elbow			R.Elbow.Medial			R.Forearm			R.Ulna			R.Radius			R.Wrist			R.Thumb.M1			R.Thumb.M2			R.Thumb.M3			R.Finger3.M1			R.Finger3.M2			R.Finger3.M3			L.Biceps.Lateral			L.Elbow			L.Elbow.Medial			L.Forearm			L.Ulna			L.Radius			L.Wrist			L.Thumb.M1			L.Thumb.M2			L.Thumb.M3			L.Finger3.M1			L.Finger3.M2			L.Finger3.M3			V.Sacral			R.ASIS			L.ASIS			R.Thigh			R.Thigh.Front			R.Knee			R.Knee.Medial			R.Shank			R.Ankle			R.Ankle.Medial			R.Heel			R.Toe			R.MedFoot			L.Thigh			L.Knee			L.Knee.Medial			L.Shank			L.Ankle			L.Ankle.Medial			L.Heel			L.Toe			L.MedFoot			V_mid_ASIS			V_R_Knee_JC			V_L_Knee_JC			V_R_Elbow_JC			V_L_Elbow_JC			V_R_Ankle_JC			V_L_Ankle_JC			V_R_Wrist_JC			V_L_Wrist_JC			V_R_ScaTrpz_1stMC_JC			V_R_1stMC_1stPP_JC			V_R_1stPP_1stDP_JC			V_R_LunCap_3rdMC_JC			V_R_3rdMC_3rdPP_JC			V_R_3rdPP_3rdMP_JC			V_R_3rdMP_3rdDP_JC			V_L_ScaTrpz_1stMC_JC			V_L_1stMC_1stPP_JC			V_L_1stPP_1stDP_JC			V_L_LunCap_3rdMC_JC			V_L_3rdMC_3rdPP_JC			V_L_3rdPP_3rdMP_JC			V_L_3rdMP_3rdPP_JC			V_ROOT_JC			V_R_Hip_JC			V_L_Hip_JC			V_R_GlenHum_JC			V_L_GlenHum_JC			V_ForeHead_Ctr			V_Vertex			V_Sagit_Lambdoid_Suture			V_R_FrontoTemp			V_L_FrontoTemporal			V_R_ParietalOccip			V_L_ParietalOcciptal			V_R_Temporal			V_L_Temporal			V_mid_FrontRearHead			V_mid_RLGlenHumCtrs			V_C7_vert			V_C1_vert			V_Mid_Hip			
		X1	Y1	Z1	X2	Y2	Z2	X3	Y3	Z3	X4	Y4	Z4	X5	Y5	Z5	X6	Y6	Z6	X7	Y7	Z7	X8	Y8	Z8	X9	Y9	Z9	X10	Y10	Z10	X11	Y11	Z11	X12	Y12	Z12	X13	Y13	Z13	X14	Y14	Z14	X15	Y15	Z15	X16	Y16	Z16	X17	Y17	Z17	X18	Y18	Z18	X19	Y19	Z19	X20	Y20	Z20	X21	Y21	Z21	X22	Y22	Z22	X23	Y23	Z23	X24	Y24	Z24	X25	Y25	Z25	X26	Y26	Z26	X27	Y27	Z27	X28	Y28	Z28	X29	Y29	Z29	X30	Y30	Z30	X31	Y31	Z31	X32	Y32	Z32	X33	Y33	Z33	X34	Y34	Z34	X35	Y35	Z35	X36	Y36	Z36	X37	Y37	Z37	X38	Y38	Z38	X39	Y39	Z39	X40	Y40	Z40	X41	Y41	Z41	X42	Y42	Z42	X43	Y43	Z43	X44	Y44	Z44	X45	Y45	Z45	X46	Y46	Z46	X47	Y47	Z47	X48	Y48	Z48	X49	Y49	Z49	X50	Y50	Z50	X51	Y51	Z51	X52	Y52	Z52	X53	Y53	Z53	X54	Y54	Z54	X55	Y55	Z55	X56	Y56	Z56	X57	Y57	Z57	X58	Y58	Z58	X59	Y59	Z59	X60	Y60	Z60	

193	1.600	69.62223	-62.48249	1754.50684	-25.28177	-47.46540	1630.00525	205.36360	-58.49433	1686.66357	71.06631	-40.44552	1459.19519	300.90118	-34.81503	1561.56763	195.07587	82.81302	1482.42676	207.55229	-163.35495	1464.32349	239.66234	191.11900	1475.20886	266.31778	-263.23392	1462.62109	361.22653	69.77718	1475.06201	378.85284	-118.56384	1464.88379	393.16202	77.01886	1385.10071	273.85794	230.59944	1335.71802	332.60574	269.97910	1154.68848	341.91489	172.04321	1143.48914	238.79750	251.01138	1087.77673	294.15457	272.06482	952.72247	188.61681	241.59782	920.14679	175.71573	290.85724	899.08649	167.00446	240.60320	872.11926	161.37047	226.43329	820.45178	165.70320	239.01280	770.98895	152.57346	318.36935	825.10291	188.47539	300.73804	755.82703	219.68311	248.27647	777.77234	334.75494	-279.76086	1320.55652	411.67374	-277.92804	1156.46960	411.41791	-183.78941	1136.38013	337.44250	-286.83978	1066.94104	412.72162	-298.58456	969.02869	321.00232	-289.93448	901.06708	351.63123	-326.89487	871.20404	305.56528	-288.83279	844.01880	289.78830	-265.90097	797.40955	286.08011	-269.38535	747.83038	338.68716	-338.53888	770.55481	342.03860	-306.92886	712.33655	342.50836	-247.03212	713.79364	424.21426	-23.17314	1108.98328	228.08275	166.41705	1048.06116	236.10216	-188.18796	1054.43115	298.59241	147.73526	668.18604	255.56013	55.73302	550.68756	312.83398	119.79219	502.66089	330.54163	7.73505	509.39581	388.03247	76.04475	294.64514	552.30530	114.22321	111.12280	536.63232	9.47026	128.61980	624.22644	67.42245	90.89967	397.16251	67.13454	40.20125	451.84091	34.60005	84.83603	181.73105	-188.24994	679.28394	137.80908	-164.61209	544.94440	148.83073	-55.85767	523.48767	108.21410	-122.59601	337.09467	178.54430	-142.11746	80.83431	131.07849	-52.73135	115.29638	213.07742	-72.27061	47.92808	-7.33634	-133.01324	51.20641	57.82175	-90.46936	90.82359																																																																																																																															
194	1.608	63.24790	-63.80293	1754.56787	-31.06759	-47.93126	1630.57153	199.33092	-59.34086	1687.13123	65.22753	-41.25832	1459.31946	294.41571	-37.21892	1562.55847	188.91156	81.26968	1483.48364	202.18524	-164.74402	1464.87439	234.22865	189.81261	1476.64978	259.72009	-263.88666	1463.35132	355.59631	67.23794	1475.16687	372.84933	-120.98335	1465.47937	387.34628	74.67939	1386.04712	268.78543	229.01401	1337.91040	327.52316	267.69666	1156.12866	334.19980	171.40297	1144.19995	234.29836	248.72182	1088.69580	288.85571	269.88495	954.18549	182.93109	240.30965	922.53345	172.45383	289.31396	899.18262	163.24979	238.90460	872.60266	160.28667	224.08720	820.39630	165.60449	235.29814	772.13727	150.25941	317.22357	824.68121	187.61992	299.43723	755.87762	218.50859	247.65198	778.74536	328.10645	-281.42584	1320.86169	402.85104	-280.32269	1156.91565	403.18442	-185.18643	1135.98132	329.37439	-289.53131	1066.69470	404.69464	-300.63269	969.18311	314.64529	-290.41321	901.19550	343.56668	-328.72745	870.95947	297.42599	-290.45221	843.90656	283.01099	-266.11139	797.67090	278.27133	-270.92484	748.02130	330.91098	-340.90613	770.43188	333.97156	-308.60345	712.49463	335.58502	-249.15993	714.79059	416.95499	-24.17975	1109.30029	222.08818	165.13782	1048.12610	228.66835	-189.46956	1054.90137	290.44727	147.13060	668.63373	246.16267	54.63548	549.98358	303.98801	119.83936	502.63504	321.40735	6.42582	508.99487	382.82806	77.95745	295.97583	550.70697	115.28808	114.98664	533.00702	9.33990	131.85979	622.42334	66.70339	95.86842	397.15125	66.47233	39.58191	449.42410	35.51192	86.44257	174.07912	-189.70001	680.04193	131.98323	-165.22299	544.95313	144.09430	-55.60533	523.73090	104.28358	-122.54037	336.46255	177.42342	-141.88968	81.29192	129.53917	-51.58632	114.97195	212.49020	-72.20706	49.12128	-5.69897	-133.75172	48.92004	56.33422	-89.71046	90.31725																																																																																																																															
195	1.617	58.37981	-63.68307	1756.15881	-36.92810	-49.74574	1631.52173	193.10121	-61.71001	1686.88696	58.26449	-42.34018	1460.70190	288.44965	-37.62904	1563.31506	183.56561	79.90164	1484.03247	195.00497	-166.78183	1465.22131	228.34708	187.85503	1477.33472	252.87666	-265.71823	1464.40930	349.33905	66.61289	1476.15527	366.73993	-122.66077	1465.50891	381.43475	73.28948	1386.67065	263.97949	227.43121	1338.62805	323.05820	267.91501	1158.25085	329.78821	169.78766	1146.42944	228.62962	247.38522	1089.25220	285.37067	269.82507	957.13916	176.48021	241.98064	923.27911	167.15305	287.94250	899.34766	158.26904	237.31087	874.01215	159.35892	221.25212	821.73798	166.30791	231.33687	770.14966	146.18501	313.84302	823.82770	186.67438	296.59491	756.42200	217.34100	244.60091	779.54761	321.27374	-282.69821	1321.80994	394.92648	-282.10583	1157.25598	395.31042	-186.27945	1137.05188	321.43109	-291.50446	1066.83069	396.54022	-302.10815	970.37195	306.52191	-291.57587	901.53784	335.32715	-329.76535	870.84576	289.52658	-293.17383	843.77594	275.07019	-268.42456	797.62555	270.27710	-272.08725	748.06781	322.71460	-343.01855	770.35547	325.77820	-310.53516	712.39240	328.07883	-251.06335	714.44025	410.65933	-26.05207	1110.15015	216.37335	164.23506	1050.15503	221.84363	-190.90292	1055.31372	282.80029	146.87120	668.78296	236.18243	55.94504	550.33344	296.15970	120.61010	502.67694	311.87723	5.38939	509.42514	377.29916	77.96312	297.43143	548.72607	114.72122	118.73394	529.72736	10.42015	135.69772	620.13470	66.34206	101.64132	396.97430	66.49589	39.90366	447.14008	35.69144	87.47195	166.62703	-188.18587	680.53052	126.49242	-164.47511	544.76312	138.48578	-56.46321	523.72809	100.78591	-122.58430	335.64990	175.67065	-141.12256	81.99368	128.97130	-51.50285	114.41455	212.66681	-72.03313	49.60902	-4.34466	-132.03989	46.79653	55.66273	-89.88100	89.62383																																																																																																																															
196	1.625	52.29157	-64.81636	1756.56555	-43.36696	-51.54468	1632.27563	186.94751	-62.78821	1687.57263	52.67885	-44.10115	1461.15491	282.82852	-39.95960	1564.13416	176.97572	78.00604	1485.08936	188.71259	-168.49800	1467.16797	222.51663	186.40863	1478.40051	246.35159	-267.30661	1465.00171	343.81534	64.06366	1476.97998	360.85202	-123.99768	1465.60657	375.45160	71.88487	1387.51953	258.35538	226.35670	1339.64380	317.41208	265.45688	1159.32581	324.78339	166.97711	1146.71411	224.12978	246.72514	1092.39417	280.25702	267.49863	958.29712	173.71124	239.49521	925.12531	163.45276	287.25952	900.92145	155.96835	236.89844	875.06421	158.09924	217.65819	822.69598	163.83789	227.85371	772.26978	143.91539	311.10770	822.26306	186.35982	291.14142	757.52728	215.63066	239.61777	781.53149	313.42398	-284.00348	1322.44421	387.55859	-283.53867	1157.79712	388.69266	-188.13394	1137.68274	313.24484	-293.03204	1067.56116	388.43457	-303.19156	970.19177	298.48877	-293.37390	902.39874	327.55661	-331.19189	872.03223	281.72778	-293.60666	844.57526	266.44333	-271.12628	798.47998	262.90982	-274.01416	747.74390	314.92499	-343.87106	770.95465	318.24936	-311.70743	713.08148	320.20428	-252.19882	714.66675	403.56906	-27.51100	1111.13928	209.87575	162.61691	1051.00830	215.71022	-192.49666	1056.01196	273.68396	146.14536	669.72174	225.36632	56.68276	549.69617	286.30264	119.60434	502.49655	301.97681	4.96777	508.55627	371.01883	77.90688	298.28287	545.61841	115.32265	123.21802	524.94727	9.41194	138.92148	617.20844	65.42410	107.45674	397.59189	65.77706	39.36058	444.21890	36.74813	88.50987	160.72479	-187.64853	680.57239	121.53026	-164.38371	544.75439	134.39981	-56.92372	523.43506	97.36668	-122.27855	335.32993	175.20103	-141.40312	82.12755	128.55704	-51.12474	114.54665	212.20949	-71.56381	50.11818	-6.02028	-130.73833	46.65497	55.26426	-89.17157	89.12591																																																																																																																															
